<?xml version="1.0" encoding="UTF-8" standalone="no"?>
<!-- Created with Inkscape (http://www.inkscape.org/) -->

<svg
   width="135.3082mm"
   height="132.82524mm"
   viewBox="0 0 135.3082 132.82524"
   version="1.1"
   id="svg1"
   inkscape:version="1.3.2 (091e20e, 2023-11-25, custom)"
   sodipodi:docname="logo-icon-white.svg"
   xmlns:inkscape="http://www.inkscape.org/namespaces/inkscape"
   xmlns:sodipodi="http://sodipodi.sourceforge.net/DTD/sodipodi-0.dtd"
   xmlns="http://www.w3.org/2000/svg"
   xmlns:svg="http://www.w3.org/2000/svg">
  <sodipodi:namedview
     id="namedview1"
     pagecolor="#ffffff"
     bordercolor="#eeeeee"
     borderopacity="1"
     inkscape:showpageshadow="0"
     inkscape:pageopacity="0"
     inkscape:pagecheckerboard="0"
     inkscape:deskcolor="#ffffff"
     inkscape:document-units="mm"
     inkscape:zoom="0.17304819"
     inkscape:cx="-514.3076"
     inkscape:cy="1557.3697"
     inkscape:window-width="1920"
     inkscape:window-height="981"
     inkscape:window-x="-9"
     inkscape:window-y="-9"
     inkscape:window-maximized="1"
     inkscape:current-layer="layer1"
     inkscape:clip-to-page="false" />
  <defs
     id="defs1">
    <filter
       inkscape:collect="always"
       style="color-interpolation-filters:sRGB"
       id="filter3"
       x="-0.8789447"
       y="-0.8789447"
       width="2.7578894"
       height="2.7578894">
      <feGaussianBlur
         inkscape:collect="always"
         stdDeviation="62.287467"
         id="feGaussianBlur3" />
    </filter>
    <filter
       inkscape:collect="always"
       style="color-interpolation-filters:sRGB"
       id="filter4"
       x="-0.74470316"
       y="-0.74470316"
       width="2.4894063"
       height="2.4894063">
      <feGaussianBlur
         inkscape:collect="always"
         stdDeviation="52.774279"
         id="feGaussianBlur4" />
    </filter>
    <clipPath
       clipPathUnits="userSpaceOnUse"
       id="clipPath7">
      <rect
         style="fill:#5d46e5;fill-opacity:1;stroke-width:1.153;stroke-linecap:round;stroke-linejoin:round"
         id="rect8"
         width="267.56757"
         height="267.56757"
         x="-542.54211"
         y="825.58038"
         ry="0" />
    </clipPath>
  </defs>
  <g
     inkscape:label="Layer 1"
     inkscape:groupmode="layer"
     id="layer1"
     transform="translate(363.17279,-516.37215)">
    <g
       id="g7"
       clip-path="url(#clipPath7)"
       transform="matrix(1.9142857,0,0,1.9142857,373.72191,-877.13296)"
       inkscape:export-filename="logo.png"
       inkscape:export-xdpi="96"
       inkscape:export-ydpi="96">
      <rect
         style="fill:#5d46e5;fill-opacity:1;stroke-width:3.38924;stroke-linecap:round;stroke-linejoin:round"
         id="rect7"
         width="786.51294"
         height="786.51294"
         x="-802.01483"
         y="566.10767"
         ry="0" />
      <circle
         style="mix-blend-mode:normal;fill:#638dea;fill-opacity:1;stroke-width:1.153;stroke-linecap:round;stroke-linejoin:round;filter:url(#filter4)"
         id="path3"
         cx="-363.17279"
         cy="1083.6322"
         r="85.039436"
         transform="matrix(1.2291695,0,0,1.178568,113.17436,-225.9444)" />
      <circle
         style="mix-blend-mode:normal;fill:#63c4ea;fill-opacity:1;stroke-width:1.153;stroke-linecap:round;stroke-linejoin:round;filter:url(#filter3)"
         id="circle3"
         cx="-509.04971"
         cy="853.08575"
         r="85.039436"
         transform="matrix(1.2423164,0,0,1.1670495,89.858693,-139.90477)" />
      <g
         id="g8">
        <path
           id="path2"
           style="fill:#ffffff;fill-opacity:1;stroke:none;stroke-width:0;stroke-linecap:round"
           d="m -397.65234,884.47431 c -23.43896,0.53653 -47.44054,17.56516 -61.08805,64.32625 43.34628,-101.41786 156.97957,2.67478 42.52961,15.46652 -21.0439,2.35203 -48.81258,2.76333 -68.85074,70.00012 27.76414,-57.9141 47.3364,-47.69908 99.47374,-51.97147 95.80933,-7.85104 43.4488,-99.09216 -12.06456,-97.82142 z m -7.0837,33.95503 c -19.32722,-0.33186 -22.97844,41.37243 3.52961,28.71481 5.33586,-2.54785 21.86048,-12.24421 10.40058,-22.21452 -5.23231,-4.55221 -9.91887,-6.43141 -13.93019,-6.50029 z"
           sodipodi:nodetypes="scsccsscss" />
      </g>
    </g>
    <path
       id="path1"
       style="fill:#ffffff;fill-opacity:1;stroke:none;stroke-width:0;stroke-linecap:round"
       d="m -285.67158,516.38381 c -20.78212,0.47571 -42.06308,15.57412 -54.16362,57.03476 38.43291,-89.92198 139.18568,2.37159 37.70881,13.71337 -18.65854,2.08542 -43.2796,2.4501 -61.0464,62.06546 24.61703,-51.34941 41.97074,-42.29228 88.19823,-46.08039 84.94919,-6.96111 38.52381,-87.8599 -10.69702,-86.7332 z m -6.28075,30.10617 c -17.13645,-0.29424 -20.3738,36.6828 3.12952,25.45994 4.73103,-2.25905 19.38256,-10.85631 9.22166,-19.69647 -4.63922,-4.03621 -8.79455,-5.7024 -12.35118,-5.76347 z"
       sodipodi:nodetypes="scsccsscss" />
  </g>
</svg>
