<?xml version="1.0" encoding="UTF-8" standalone="no"?>
<!-- Created with Inkscape (http://www.inkscape.org/) -->

<svg
   width="507.27832mm"
   height="132.8257mm"
   viewBox="0 0 507.27832 132.8257"
   version="1.1"
   id="svg1"
   inkscape:version="1.3.2 (091e20e, 2023-11-25, custom)"
   sodipodi:docname="logo.svg"
   xmlns:inkscape="http://www.inkscape.org/namespaces/inkscape"
   xmlns:sodipodi="http://sodipodi.sourceforge.net/DTD/sodipodi-0.dtd"
   xmlns="http://www.w3.org/2000/svg"
   xmlns:svg="http://www.w3.org/2000/svg">
  <sodipodi:namedview
     id="namedview1"
     pagecolor="#ffffff"
     bordercolor="#eeeeee"
     borderopacity="1"
     inkscape:showpageshadow="0"
     inkscape:pageopacity="0"
     inkscape:pagecheckerboard="0"
     inkscape:deskcolor="#ffffff"
     inkscape:document-units="mm"
     inkscape:zoom="0.12236355"
     inkscape:cx="956.1671"
     inkscape:cy="1189.0796"
     inkscape:window-width="1920"
     inkscape:window-height="991"
     inkscape:window-x="-9"
     inkscape:window-y="-9"
     inkscape:window-maximized="1"
     inkscape:current-layer="layer1"
     inkscape:clip-to-page="false" />
  <defs
     id="defs1" />
  <g
     inkscape:label="Layer 1"
     inkscape:groupmode="layer"
     id="layer1"
     transform="translate(363.17279,-516.37192)">
    <path
       id="path3"
       style="fill:#5d46e5;fill-opacity:1;stroke:none;stroke-width:0;stroke-linecap:round"
       d="M -285.67158 516.38381 C -306.4537 516.85952 -327.73466 531.95793 -339.8352 573.41857 C -301.40229 483.49659 -200.64952 575.79016 -302.12639 587.13194 C -320.78493 589.21736 -345.40599 589.58204 -363.17279 649.1974 C -338.55576 597.84799 -321.20205 606.90512 -274.97456 603.11701 C -190.02537 596.1559 -236.45075 515.25711 -285.67158 516.38381 z M -4.4970088 535.57385 C -4.6782264 535.59683 -4.8589565 535.64733 -5.029276 535.7325 C -5.3673251 535.90153 -5.6251007 536.19476 -5.7832351 536.50764 C -6.67961 538.17474 -7.4483509 539.96612 -8.085937 541.87889 L -8.0900711 541.89078 L -8.0936884 541.90214 C -8.1100684 541.95674 -8.1319795 542.00578 -8.1484655 542.06027 L -7.2337926 542.05252 C -7.2340415 542.05326 -7.2345773 542.05385 -7.2348261 542.05459 L -8.1484655 542.06234 C -8.6915927 543.8573 -9.286764 545.59878 -9.945255 547.27494 L -9.9473221 547.27701 L -18.668237 569.69321 L -18.670304 569.69321 C -20.794972 575.19236 -22.949923 580.69226 -25.137093 586.19143 C -27.306399 591.58369 -29.507445 597.00695 -31.73824 602.46072 L -31.77183 602.45297 C -32.592042 604.15199 -33.757928 605.64259 -35.295129 606.9452 C -36.791352 608.15194 -38.440909 608.79313 -40.334098 608.90787 L -40.564575 608.92131 L -42.23269 610.03494 L -41.322151 611.85343 L -40.613667 612.32782 L -40.328413 612.31025 C -34.77656 611.99834 -29.285828 611.81193 -23.859651 611.74956 L -23.64261 611.74749 L -22.168282 610.92739 L -22.168282 608.91149 L -22.695381 608.69083 C -23.443137 608.37926 -24.163182 608.1323 -24.863207 607.93687 C -24.969615 607.89427 -25.022283 607.85861 -25.10557 607.67539 C -25.18886 607.49216 -25.261633 607.1545 -25.261633 606.67132 C -25.261633 606.79673 -25.235185 606.51229 -25.132958 606.16179 C -25.030731 605.81129 -24.870306 605.31974 -24.654435 604.70296 C -24.221847 603.467 -23.661448 601.97543 -22.976501 600.23192 L -22.974951 600.22778 L -22.972884 600.2221 C -22.289178 598.4196 -21.542881 596.52322 -20.734261 594.53252 L -20.730643 594.52064 C -19.855198 592.45689 -19.042237 590.48696 -18.290999 588.60885 L -18.288932 588.60265 L -18.286865 588.59852 C -17.54126 586.67237 -16.889867 584.9985 -16.329878 583.5673 L -16.326261 583.55748 C -16.324061 583.55148 -16.320709 583.54335 -16.318509 583.53785 C -15.809187 582.36603 -15.498322 581.62606 -15.236405 580.98916 L 3.3924322 580.98916 C 3.6042526 581.54432 3.85284 582.1854 4.3086553 583.35026 C 4.8708243 584.78692 5.5275654 586.47354 6.2775274 588.41093 L 6.2832118 588.42644 L 6.2888962 588.44246 C 7.096123 590.30528 7.9042866 592.29382 8.7130376 594.40902 L 8.716655 594.4209 L 8.7228562 594.43072 C 9.5955598 596.55015 10.372218 598.51146 11.056564 600.31563 L 11.058631 600.32132 L 11.060698 600.32545 C 11.745644 602.06896 12.306044 603.56002 12.738632 604.79598 L 12.746383 604.82182 L 12.757752 604.84714 C 13.003259 605.43022 13.177003 605.87803 13.273483 606.16747 C 13.307833 606.27053 13.320144 606.32077 13.333944 606.37418 L 13.349964 606.5597 C 13.392094 607.02311 13.290093 607.30945 12.94172 607.65782 L 12.920016 607.67694 L 12.902446 607.69865 C 12.599913 608.04438 12.281599 608.20781 11.783134 608.25313 L 11.577979 608.27277 L 9.9920293 609.26289 L 10.902568 611.08138 L 11.65446 611.64569 L 11.922144 611.65603 C 15.303525 611.78127 18.685356 611.87453 22.066745 611.93715 C 25.49486 611.99945 28.890538 612.1233 32.255787 612.31025 L 32.503834 612.32369 L 34.47839 611.22815 L 33.804529 610.42923 L 32.535356 608.92906 L 32.167937 608.90787 C 30.2132 608.79289 28.500406 608.12109 26.939315 606.84908 C 25.3476 605.55214 24.190574 604.04467 23.433586 602.29846 L 23.433586 602.29639 C 18.750714 591.43275 14.378413 580.5375 10.320175 569.61156 L 10.320175 569.6095 C 6.920553 560.40445 3.3811207 551.19914 -0.19339547 541.99413 L -1.0791295 542.00188 C -1.0794074 542.00116 -1.0798851 542.00053 -1.080163 541.99981 L -0.19339547 541.99206 C -0.89341751 540.18938 -1.545455 538.38627 -2.2521845 536.58361 L -2.3162633 536.41772 L -2.4433873 536.2906 C -2.8452663 535.88872 -3.3874728 535.662 -3.9611241 535.58005 C -4.1342914 535.5553 -4.315791 535.55087 -4.4970088 535.57385 z M -192.07419 535.65033 L -193.93919 536.4787 L -193.13872 538.08016 L -193.10927 538.12511 C -192.91096 538.4226 -192.65053 538.66941 -192.34549 538.89819 L -192.14447 539.05064 L -191.89074 539.06821 C -190.28177 539.17917 -189.12351 539.78797 -188.19742 540.98644 L -188.18347 541.00401 L -188.17004 541.02158 C -187.1579 542.20241 -186.64967 543.49016 -186.5939 544.99601 C -186.40662 549.86542 -186.28116 554.70318 -186.21873 559.50986 C -186.15623 564.32014 -186.1252 569.16215 -186.1252 574.03507 L -186.1252 588.57216 C -186.1252 593.3035 -186.25103 598.09628 -186.49985 602.9532 C -186.61134 604.38524 -187.17447 605.69078 -188.25789 606.94727 C -189.32164 608.11894 -190.48818 608.70807 -191.89642 608.81641 L -192.12122 608.83398 L -193.73249 609.90626 L -192.97646 611.79504 L -192.09951 612.23274 L -191.86542 612.21672 C -188.31672 611.96768 -184.76712 611.81234 -181.21852 611.75008 L -181.21077 611.75008 L -181.20457 611.75008 C -177.58807 611.62537 -174.00223 611.56249 -170.44864 611.56249 L -170.18922 611.56249 L -168.59914 610.50209 L -169.17171 608.60143 L -169.50141 608.43555 C -169.8027 608.28491 -170.03737 608.1565 -170.44864 608.1565 L -170.26932 608.17562 C -171.9204 607.82182 -173.26431 607.24043 -174.33574 606.45324 C -175.20422 605.77286 -175.68379 604.66164 -175.68501 602.83228 L -175.68501 602.82607 C -175.62251 592.7 -175.59147 582.6358 -175.59147 572.63464 L -175.59147 572.63257 C -175.53077 562.91977 -175.60034 553.14274 -175.77493 543.31239 C -174.91986 543.34789 -174.06685 543.38474 -173.07587 543.38474 L -173.05416 543.38474 L -173.03504 543.38267 C -171.73569 543.32077 -170.43586 543.28914 -169.13657 543.28914 C -167.80016 543.28914 -166.56314 543.38085 -165.42569 543.56044 L -165.40037 543.56458 L -165.37659 543.56664 C -164.19198 543.6851 -163.17905 543.92068 -162.33389 544.25807 C -159.61418 545.38239 -157.70452 547.07406 -156.48618 549.39471 L -156.47998 549.40608 L -156.4743 549.41796 C -155.1765 551.7186 -154.6233 554.1585 -154.8005 556.81648 C -154.97725 559.4034 -155.88074 561.86704 -157.55433 564.25789 L -157.55795 564.26564 L -157.56208 564.27184 C -159.1461 566.61853 -161.45844 568.4148 -164.58181 569.67616 L -164.59318 569.68029 L -164.60352 569.68598 C -166.48507 570.50917 -168.43472 570.85837 -170.49411 570.74069 L -170.68531 570.72933 L -172.40046 571.41456 L -172.19323 573.48678 L -171.7421 573.69194 C -171.04366 574.0094 -170.37497 574.29573 -169.73602 574.55131 L -169.69106 574.57095 L -169.64455 574.58232 C -168.93643 574.77544 -168.19785 574.93633 -167.43177 575.06498 C -167.43077 575.06526 -167.42863 575.06471 -167.42763 575.06498 C -164.25376 575.71215 -161.29253 575.6537 -158.58011 574.85982 C -155.8546 574.08052 -153.45993 572.83664 -151.42758 571.13344 C -149.3405 569.43623 -147.66805 567.36883 -146.42943 564.95758 C -145.13213 562.55307 -144.34644 560.00332 -144.0859 557.33273 C -143.82459 554.6544 -144.1205 551.96948 -144.9644 549.30531 L -144.96647 549.30118 C -145.6465 547.1061 -146.8606 545.12598 -148.36316 543.27364 L -149.3569 543.28294 C -149.35794 543.28174 -149.35896 543.28052 -149.36 543.27932 L -148.36523 543.27157 C -148.74988 542.79752 -149.04531 542.28487 -149.48247 541.83445 L -149.73621 541.57245 L -149.79305 541.57245 C -151.60704 539.77061 -153.60469 538.41021 -155.8025 537.59388 L -155.80457 537.59388 C -158.2822 536.68106 -160.81047 536.28515 -163.36535 536.41617 L -163.34364 536.41411 C -168.14295 536.53877 -172.9118 536.53875 -177.6482 536.41411 C -182.38467 536.28947 -187.12105 536.04236 -191.85767 535.66842 L -192.07419 535.65033 z M -99.986271 535.6524 L -101.84559 536.4787 L -101.4451 537.28331 C -101.32006 537.53338 -101.19549 537.78305 -101.07044 538.03313 L -101.04512 538.08016 L -101.01567 538.12511 C -100.81735 538.4226 -100.55899 538.66993 -100.25395 538.89871 L -100.05293 539.04909 L -99.800752 539.06821 C -98.249461 539.17902 -97.023066 539.77618 -95.966878 540.94355 C -95.438508 541.52754 -95.044791 542.14518 -94.771602 542.80855 L -93.879667 542.80028 C -93.879319 542.80126 -93.879497 542.80241 -93.87915 542.80338 L -94.769535 542.81062 C -94.492442 543.48434 -94.342397 544.20626 -94.314265 544.99395 L -94.314265 544.99601 L -94.312198 544.99601 C -93.937506 554.67559 -93.752026 564.35551 -93.752026 574.03507 L -93.752026 574.0392 L -93.752026 574.04127 C -93.689656 583.64606 -93.876041 593.28214 -94.312198 602.94958 C -94.423652 604.45421 -94.987375 605.75125 -96.062479 606.93952 L -96.068164 606.94779 L -96.075915 606.95761 C -97.066867 608.1137 -98.250184 608.70616 -99.800752 608.81692 L -100.02554 608.83243 L -101.63837 609.90678 L -100.88286 611.79555 L -100.01366 612.23119 L -99.785249 612.21723 C -91.798002 611.78042 -83.873152 611.56301 -76.011507 611.56301 C -68.145319 611.56301 -60.215934 611.71953 -52.224328 612.03171 L -51.849674 612.04567 L -51.584057 611.78005 C -51.661407 611.85735 -51.735974 611.84413 -51.629016 611.84413 C -51.386846 611.84413 -51.133311 611.81619 -50.868855 611.68393 C -50.60714 611.55308 -50.358816 611.27714 -50.257523 610.9832 C -49.924647 610.11087 -49.690088 609.18023 -49.558341 608.19216 C -49.438586 607.294 -49.259635 606.42812 -49.021423 605.59438 C -48.770042 604.71455 -48.550689 603.83445 -48.360998 602.95372 L -48.351179 602.91289 C -48.102413 601.97746 -47.88335 601.07076 -47.695406 600.19368 L -47.671634 600.08257 L -47.687137 599.76993 L -47.783255 599.5963 L -48.445231 598.40464 L -50.087508 598.07649 L -51.331876 598.78756 L -51.42541 599.13121 C -51.939044 601.01453 -52.946184 602.39782 -54.531164 603.41674 C -55.330767 603.93077 -56.146951 604.29365 -56.986311 604.52003 C -57.786528 604.69001 -58.687699 604.78178 -59.691056 604.78203 C -63.813343 604.65735 -67.906373 604.59458 -71.966792 604.59444 L -71.980228 604.59444 C -75.758225 604.53654 -79.568876 604.57859 -83.400203 604.68229 C -83.28226 594.84751 -83.218819 585.06513 -83.218819 575.34817 C -83.218819 565.34314 -83.249823 555.27694 -83.312353 545.14691 C -83.311871 544.21219 -83.099514 543.42868 -82.776985 542.70778 L -82.777502 542.70726 L -83.762971 542.71553 C -83.762705 542.7148 -83.762205 542.71419 -83.761938 542.71346 L -82.775435 542.7052 C -82.554707 542.21254 -82.311452 541.73488 -81.937243 541.31665 C -81.036189 540.30958 -79.88912 539.82062 -78.263566 539.82062 L -78.04084 539.82062 L -76.283325 538.84393 L -77.210917 536.9903 L -77.97056 536.41979 L -78.248063 536.41411 C -81.874152 536.35161 -85.469369 536.28903 -89.032934 536.22652 L -89.017431 536.22859 C -92.571235 536.10389 -96.156653 535.91525 -99.773364 535.66583 L -99.986271 535.6524 z M -115.88659 536.11335 L -116.08813 536.14281 C -119.42242 536.63677 -122.78872 536.88281 -126.18571 536.88281 C -129.58787 536.88281 -132.95749 536.66714 -136.29672 536.23427 L -136.53494 536.20327 L -138.5157 537.08228 L -136.90805 539.58187 L -136.50187 539.62683 C -135.02314 539.79114 -133.9009 540.42638 -132.961 541.64273 L -132.95273 541.65255 L -132.94498 541.66288 C -132.55405 542.14068 -132.30641 542.63502 -132.06235 543.13153 L -131.06654 543.12223 C -131.06619 543.12307 -131.06587 543.12397 -131.06551 543.12481 L -132.06028 543.13308 C -131.66497 543.93807 -131.39114 544.76451 -131.35697 545.65282 C -131.23244 550.63986 -131.20107 555.53362 -131.26343 560.33254 L -131.26343 560.33875 L -131.26343 574.87946 L -131.26343 588.86 L -131.26343 588.8662 C -131.20103 593.48106 -131.23227 598.12566 -131.35697 602.80334 L -131.35697 602.81522 L -131.35697 602.82711 C -131.35697 604.24347 -131.85097 605.5176 -132.92948 606.7664 L -132.9393 606.77777 L -132.94705 606.78811 C -133.88678 607.94896 -135.03502 608.60113 -136.53339 608.82312 L -136.75612 608.8562 L -138.37876 610.11814 L -137.26151 611.98159 L -136.48844 612.23894 L -136.28896 612.21206 C -129.55086 611.28481 -122.81798 611.28481 -116.07986 612.21206 L -115.79668 612.25082 L -113.87328 611.18267 L -114.41226 610.40339 L -115.46698 608.87997 L -115.83182 608.82519 C -117.26115 608.60529 -118.46397 607.94295 -119.53702 606.76072 C -120.53857 605.58845 -121.01186 604.3204 -121.01186 602.82711 L -121.01186 545.62026 C -121.01186 544.67184 -120.72885 543.83405 -120.30648 543.03231 L -120.30648 543.03127 L -121.32967 543.04058 C -121.32931 543.03974 -121.329 543.03883 -121.32864 543.03799 L -120.30441 543.02972 C -120.06489 542.57558 -119.8377 542.12141 -119.45278 541.69596 L -119.44451 541.68614 L -119.43676 541.67787 C -118.42243 540.49449 -117.24298 539.80091 -115.80029 539.52348 L -115.59669 539.48472 L -113.98955 538.23467 L -115.10886 536.37122 L -115.88659 536.11335 z M 124.65997 536.41411 C 120.58554 536.47941 116.91639 537.52468 113.71696 539.5488 C 113.08435 539.9444 112.62596 540.55083 112.0566 541.02365 C 109.78266 542.91202 107.87141 545.23785 106.62696 548.2971 L 106.62696 548.29865 C 105.64821 550.71292 105.18617 553.18209 105.25185 555.67805 L 105.25185 555.68167 L 105.25185 555.68787 C 105.31605 557.35732 105.5095 559.02654 105.83011 560.69376 C 106.16191 562.41913 106.79455 564.05061 107.72095 565.57253 L 107.72663 565.5808 L 107.73077 565.58855 C 109.21794 567.91634 111.12136 570.07465 113.42809 572.06103 L 113.43791 572.0693 L 113.44773 572.07705 C 115.7698 573.95981 118.18474 575.84193 120.6938 577.72373 L 120.7 577.72786 L 120.7062 577.73355 C 123.18736 579.53239 125.57351 581.42317 127.86804 583.40762 C 130.11733 585.35295 131.9295 587.49945 133.31732 589.85271 L 133.32145 589.85684 L 133.32352 589.86304 C 134.49631 591.79814 134.96652 593.68941 134.79578 595.62445 C 134.62605 597.48674 133.81996 599.23672 132.29206 600.94092 L 132.28999 600.94505 L 132.28792 600.94712 C 131.0123 602.39669 129.51074 603.35776 127.72748 603.87666 C 125.49065 604.48026 123.32802 604.74886 121.2333 604.68901 C 119.11594 604.62851 117.03157 604.32452 114.97374 603.78105 C 112.96077 603.17025 110.94357 602.37796 108.92294 601.39825 C 106.94816 600.41052 105.00286 599.32927 103.08867 598.15608 L 102.92279 598.05427 L 101.3079 597.89253 L 101.01645 598.27907 C 100.62759 598.79753 100.36071 599.18438 100.18446 599.53687 L 100.04183 599.82006 L 100.12038 600.12856 C 100.42236 601.33651 100.63388 602.5759 100.75496 603.8472 L 100.75703 603.86684 L 100.7591 603.88647 C 100.95072 605.22773 101.20654 606.53821 101.52649 607.81802 L 101.59264 608.08363 L 102.61222 608.95852 L 102.81169 609.00761 C 106.41212 609.89193 110.01303 610.52278 113.6162 610.90207 L 113.61826 610.90207 C 117.26872 611.2797 120.92076 611.50109 124.5716 611.56404 C 127.16865 611.62804 129.62627 611.23585 131.91895 610.38427 C 134.22996 609.52589 136.33776 608.13744 138.22761 606.24757 C 141.94126 602.53393 143.7665 597.88455 143.63762 592.49596 L 143.63762 592.49389 C 143.57242 589.18312 142.7866 586.18581 141.27446 583.55438 C 139.86005 580.98515 138.06044 578.63903 135.88409 576.52484 L 135.87995 576.52122 C 133.78409 574.4258 131.49793 572.49011 129.02456 570.71434 C 126.6053 568.91514 124.34231 567.14666 122.23531 565.41182 C 120.22002 563.6396 118.51735 561.81367 117.12399 559.93722 L 117.12192 559.93309 C 115.77646 558.05975 115.05856 556.01999 114.94066 553.74173 L 114.94066 553.7376 C 114.94063 553.73694 114.9407 553.73653 114.94066 553.73553 C 114.88636 552.51723 115.15582 551.33792 115.7804 550.14557 L 115.78816 550.13213 L 115.79436 550.11818 C 116.50336 548.64109 117.41306 547.35279 118.52856 546.23573 C 119.68611 545.13857 121.0346 544.33361 122.60686 543.80952 C 124.03606 543.33312 125.55863 543.03364 127.18126 542.91345 L 127.19469 542.91345 L 127.2102 542.91139 C 128.8915 542.73125 130.53525 542.76211 132.14995 543.0013 L 132.15201 543.0013 L 132.15356 543.0013 C 133.81913 543.23924 135.35364 543.71122 136.76879 544.41879 L 136.78636 544.42912 L 136.80599 544.43687 C 138.26294 545.07793 139.50086 545.97272 140.54633 547.13438 L 140.7086 547.31215 L 142.26303 547.77879 L 142.59892 547.554 C 142.77619 547.43582 142.92691 547.30632 143.07383 547.17314 C 143.40442 546.95064 143.65434 546.63689 143.82934 546.28689 L 143.90789 546.13031 L 143.9177 545.95668 C 143.9802 544.95614 144.01024 543.95543 144.01124 542.95479 L 144.01331 542.90208 C 144.07481 541.90154 144.10684 540.90084 144.10684 539.9002 L 144.10684 539.04237 L 143.63814 539.04237 L 143.05626 538.37626 L 142.78857 538.31425 C 139.81509 537.61833 136.80781 537.11285 133.77104 536.79651 C 130.73616 536.48038 127.70109 536.35259 124.66565 536.41566 L 124.65997 536.41411 z M 29.200676 536.75466 C 29.017956 536.7255 28.825091 536.73188 28.656006 536.78824 L 28.656006 536.78721 C 28.317838 536.89994 28.116564 537.11303 27.960958 537.32051 L 28.03899 537.22853 L 27.345492 537.92409 L 27.322238 538.24242 C 27.237008 539.39303 27.151667 540.57837 27.066439 541.75797 L 27.927369 541.75022 C 27.927319 541.75091 27.927419 541.75159 27.927369 541.75228 L 27.066439 541.759 C 27.026569 542.31078 26.986937 542.84524 26.947067 543.40334 L 26.945516 543.4173 L 26.945516 543.4328 C 26.883778 545.09969 26.759212 546.76527 26.573963 548.4325 L 26.547091 548.68468 L 26.660263 548.91102 C 26.836504 549.26351 27.08578 549.58279 27.419906 549.80554 L 27.544963 549.8877 L 27.68759 549.92284 C 27.872364 549.96904 28.064885 550.04044 28.263782 550.13988 L 28.685462 550.35072 L 30.275546 549.39781 L 30.382516 549.12806 C 30.645428 548.47078 30.874658 547.78312 31.070329 547.06565 L 31.072396 547.05739 L 31.074463 547.04757 C 31.248412 546.35178 31.477812 545.72462 31.759693 545.16086 L 31.730754 545.13916 C 31.852088 544.83858 32.033948 544.5989 32.384978 544.37951 L 32.427869 544.35212 L 32.465076 544.32112 C 32.71226 544.12338 32.873614 544.1356 32.679533 544.1356 L 32.818543 544.1356 L 32.951351 544.09064 C 32.921641 544.10064 33.0357 544.07273 33.261927 544.11803 L 33.304818 544.12785 L 33.34771 544.13198 C 36.634674 544.44803 39.800176 544.54199 42.843771 544.41517 L 42.851522 544.41517 L 42.861341 544.41517 C 45.631643 544.24556 48.502619 544.17675 51.42981 544.16144 C 51.549447 553.93376 51.64248 563.70723 51.703178 573.47955 L 51.703178 573.48161 L 51.703178 573.48575 C 51.828062 583.47645 51.734277 593.49667 51.422059 603.55006 L 51.422059 603.5635 L 51.422059 603.57745 C 51.422059 604.33007 51.263304 605.04314 50.937334 605.74941 L 50.929582 605.76491 L 50.923898 605.77887 C 50.656895 606.41968 50.257665 607.01148 49.7033 607.56584 C 49.216837 608.0523 48.646371 608.45712 47.98816 608.79057 C 47.371701 609.04383 46.711431 609.15254 45.96296 609.09908 L 45.777442 609.08512 L 44.351689 609.61842 L 44.148601 611.64983 L 45.687525 612.50507 L 45.918002 612.50094 C 49.53924 612.43844 53.160185 612.4074 56.781421 612.4074 L 67.945598 612.4074 L 68.712993 611.83328 L 69.638518 609.97758 L 67.869117 608.99521 L 67.630888 609.00348 C 66.020972 609.05898 64.857756 608.58004 63.890548 607.50538 C 62.893188 606.39719 62.384591 605.12064 62.32837 603.54644 C 62.203618 593.49322 62.171877 583.47078 62.234319 573.48006 C 62.295119 563.75135 62.355415 553.99063 62.41622 544.20278 C 63.84384 544.18748 65.453329 544.14833 67.609184 544.04052 C 70.101517 543.91591 72.657366 543.82175 75.275383 543.7594 C 77.944722 543.6973 80.425533 543.72933 82.713172 543.85293 L 82.724541 543.85293 L 82.736426 543.85293 C 85.070614 543.91433 86.771217 544.14402 87.738188 544.46633 L 87.742322 544.4684 L 87.748007 544.47046 C 89.343578 544.98333 90.6936 545.90649 91.851632 547.29613 L 92.021648 547.49974 L 93.269634 547.85682 L 95.010096 546.90752 L 95.054537 546.45639 L 95.183729 545.15569 L 94.947567 544.87819 C 93.905244 543.65193 92.895673 542.42462 91.914161 541.19883 C 91.913906 541.19851 91.912394 541.19915 91.912094 541.19883 C 91.902094 541.18633 91.891068 541.17412 91.881088 541.16162 L 91.869202 541.14612 C 90.872826 539.83838 89.877131 538.53214 88.880754 537.22439 L 88.697303 536.9841 L 88.406364 536.91175 C 88.093446 536.83345 87.848531 536.83245 87.408493 536.81615 C 86.968453 536.79985 86.39117 536.79031 85.665963 536.79031 C 84.215551 536.79031 82.426091 536.82373 80.294715 536.88643 L 80.320553 536.88436 C 78.186445 536.88436 75.866107 536.91726 73.359221 536.97996 L 73.380925 536.9779 C 70.935296 536.9779 68.581774 537.0107 66.322441 537.0735 C 64.081678 537.1357 62.092473 537.19674 60.345545 537.25902 L 56.68737 537.25902 L 42.902165 537.25902 C 38.621835 537.25902 34.089325 537.10411 29.307646 536.79445 C 29.268652 536.78469 29.240998 536.76109 29.200676 536.75466 z M -291.95233 546.48998 C -309.08878 546.19574 -312.32613 583.17278 -288.82281 571.94992 C -284.09178 569.69087 -269.44025 561.09361 -279.60115 552.25345 C -284.24037 548.21724 -288.3957 546.55105 -291.95233 546.48998 z M -5.8612666 556.83818 L 0.76933646 574.12912 C -1.455225 574.13712 -3.690286 574.15652 -5.958935 574.20922 C -8.1664203 574.20922 -10.372747 574.17549 -12.580236 574.13119 C -11.321314 571.12409 -10.107366 568.10128 -8.9959589 565.04492 C -8.0012386 562.30943 -6.9353947 559.57386 -5.8612666 556.83818 z " />
  </g>
</svg>
