<?xml version="1.0" encoding="UTF-8" standalone="no"?>
<!-- Created with Inkscape (http://www.inkscape.org/) -->

<svg
   width="55.318127mm"
   height="156.7793mm"
   viewBox="0 0 55.318127 156.7793"
   version="1.1"
   id="svg1"
   inkscape:version="1.3.2 (091e20e, 2023-11-25, custom)"
   sodipodi:docname="body.svg"
   xmlns:inkscape="http://www.inkscape.org/namespaces/inkscape"
   xmlns:sodipodi="http://sodipodi.sourceforge.net/DTD/sodipodi-0.dtd"
   xmlns="http://www.w3.org/2000/svg"
   xmlns:svg="http://www.w3.org/2000/svg">
  <sodipodi:namedview
     id="namedview1"
     pagecolor="#505050"
     bordercolor="#eeeeee"
     borderopacity="1"
     inkscape:showpageshadow="0"
     inkscape:pageopacity="0"
     inkscape:pagecheckerboard="0"
     inkscape:deskcolor="#505050"
     inkscape:document-units="mm"
     showborder="true"
     inkscape:zoom="0.97890839"
     inkscape:cx="179.79211"
     inkscape:cy="335.57788"
     inkscape:window-width="1920"
     inkscape:window-height="991"
     inkscape:window-x="-9"
     inkscape:window-y="-9"
     inkscape:window-maximized="1"
     inkscape:current-layer="layer1"
     inkscape:clip-to-page="false" />
  <defs
     id="defs1" />
  <g
     inkscape:label="Layer 1"
     inkscape:groupmode="layer"
     id="layer1"
     transform="translate(-81.919659,-72.512836)">
    <path
       style="fill:#e6e3ff;fill-opacity:1;stroke:none;stroke-width:0.411262;stroke-dasharray:none;stroke-opacity:1"
       d="m 97.252659,228.85743 c -2.293015,-0.30713 -2.415681,-0.97931 -0.680238,-3.73062 2.61904,-4.15205 2.740467,-7.33749 0.589168,-15.46472 -1.928116,-7.28546 -2.11103,-10.38959 -1.566003,-26.59619 0.195305,-5.7941 0.04337,-8.20654 -0.7171,-11.42543 -1.332287,-5.63922 -1.260577,-14.04446 0.178888,-20.81323 0.620144,-2.91905 1.091447,-6.59144 1.047151,-8.161 -0.04492,-1.56941 0.108417,-6.17248 0.339035,-10.22881 0.317197,-5.57093 0.245641,-7.90034 -0.29257,-9.52132 l -0.712919,-2.14573 -0.922781,3.80837 c -0.507391,2.09462 -1.084478,5.25094 -1.282261,7.0138 -0.197473,1.76286 -1.47896,6.04733 -2.847025,9.52116 -2.452697,6.22793 -2.479027,6.36221 -1.890324,9.64305 0.740332,4.12619 0.7679,7.28205 0.0635,7.28205 -0.293499,0 -0.681167,-0.67327 -0.861449,-1.49631 -0.662736,-3.0239 -0.979003,-3.06339 -1.508697,-0.1891 -0.388906,2.11211 -0.357775,3.62669 0.111515,5.37793 0.735685,2.75069 0.445593,3.53563 -0.731659,1.97969 -2.900459,-3.83346 -4.169864,-9.87785 -3.019097,-14.37808 0.3443,-1.34654 0.959023,-6.15683 1.366051,-10.68974 0.427007,-4.75578 1.077663,-8.89745 1.538744,-9.79313 0.569962,-1.10725 0.723604,-2.64289 0.535889,-5.36028 -0.18307,-2.64228 0.08673,-5.50045 0.876162,-9.33469 0.626494,-3.03923 1.138996,-6.18858 1.138996,-6.99861 0,-1.80421 1.981085,-5.44857 3.503256,-6.44492 0.616737,-0.40346 2.579855,-1.157423 4.362537,-1.67519 1.782682,-0.517768 4.410392,-1.534098 5.839482,-2.258322 3.21843,-1.630898 3.79738,-3.247083 2.19203,-6.118889 -1.52805,-2.733341 -2.94661,-8.356921 -2.27706,-9.026471 0.28901,-0.289163 0.52629,-1.272349 0.52753,-2.185064 0,-4.11643 3.76562,-7.127164 8.35134,-6.686683 2.25724,0.216989 3.03676,0.594744 4.48242,2.172054 2.53927,2.770978 3.30733,6.863866 2.08408,11.105441 -0.50383,1.746285 -1.42243,4.061912 -2.04134,5.145925 -1.07471,1.881806 -1.08323,2.034829 -0.19328,3.393446 1.106,1.688049 4.10698,3.312133 7.77998,4.210134 6.81446,1.666209 7.74622,3.094369 9.72747,14.908699 0.45148,2.69308 0.82071,6.8092 0.82009,9.14682 -5.5e-4,2.33762 0.35282,5.39807 0.78525,6.80083 0.43258,1.40291 1.05009,5.75429 1.37256,9.67 0.3223,3.91571 0.8252,7.95361 1.11762,8.97335 1.07503,3.74828 0.65499,8.6721 -1.04669,12.26906 -1.43095,3.02483 -2.52549,4.43998 -3.03753,3.92779 -0.10532,-0.10532 0.16449,-1.53735 0.59862,-3.18281 0.64601,-2.44604 0.66909,-3.43279 0.127,-5.4103 l -0.6632,-2.41894 -0.48664,1.60271 c -0.99201,3.26691 -1.02794,3.31879 -1.49321,2.14681 -0.47656,-1.20111 -0.17269,-5.07112 0.6011,-7.63363 0.41539,-1.37736 0.0991,-2.64212 -1.92673,-7.67947 -1.33336,-3.31693 -2.6988,-7.71633 -3.03427,-9.77656 -0.33563,-2.06023 -0.83744,-4.63126 -1.11514,-5.71325 -0.27786,-1.082 -0.50507,-2.61223 -0.50507,-3.40042 0,-1.90024 -0.79563,-1.82032 -1.61665,0.16247 -0.44358,1.07054 -0.56841,3.44146 -0.38008,7.20879 0.57291,11.46337 1.3422,19.82958 2.04149,22.20809 1.1201,3.80914 0.96754,15.20267 -0.26857,20.07539 -0.90001,3.54785 -0.96893,5.06461 -0.57925,12.78543 0.67621,13.40047 0.54689,15.34454 -1.58923,23.88081 -2.23215,8.91991 -2.14496,11.8196 0.46835,15.59096 1.57995,2.27969 1.54091,3.80666 -0.0991,3.87992 -0.53294,0.0248 -2.23416,0.127 -3.78034,0.22892 -4.18752,0.2763 -4.70528,-0.52366 -4.28417,-6.61746 0.41013,-5.93132 0.41989,-9.66876 0.0681,-25.21062 -0.2918,-12.86674 -0.47595,-14.62496 -2.68037,-25.57118 -0.75318,-3.74038 -1.59915,-8.14721 -1.87979,-9.79313 -0.43057,-2.52426 -0.52148,-2.68797 -0.58205,-1.04731 -0.10531,2.85833 -2.16167,13.95045 -3.1701,17.09733 -0.67311,2.10018 -0.89335,5.38645 -0.96615,14.41773 -0.0511,6.43361 -0.42313,14.23032 -0.82536,17.32609 -0.54642,4.20455 -0.57988,6.06282 -0.13165,7.34492 0.7298,2.09136 1.02717,8.87299 0.46294,10.55732 -0.22536,0.67327 -0.69944,1.26491 -1.05319,1.31463 -1.26739,0.17889 -5.02125,0.17889 -6.356325,-5.6e-4 z"
       id="path2"
       sodipodi:nodetypes="ssssssssscsssssssssssssssssssscssssssssssssssscsssssssssssssssssssssssssssss" />
    <path
       id="path8"
       style="opacity:1;fill:#d0cbff;fill-opacity:1;stroke:none;stroke-width:0.344001;stroke-linecap:round"
       d="M 124.59716 153.05934 L 108.88029 156.03074 L 109.16296 160.79995 L 109.1888 162.02262 C 109.24123 161.54691 109.28499 161.10636 109.29628 160.79995 C 109.31143 160.38979 109.32834 160.09225 109.35209 159.91629 C 109.36398 159.82832 109.37758 159.77087 109.39343 159.74472 C 109.47265 159.61389 109.60905 160.26926 109.87816 161.84692 C 110.1588 163.49284 111.00497 167.89974 111.75815 171.64012 C 111.92294 172.45839 112.04725 173.1083 112.18913 173.82965 L 112.17983 173.83585 C 113.91947 182.65756 114.17035 185.38245 114.4386 197.21117 C 114.66666 207.28637 114.72499 212.26755 114.63859 216.23481 L 120.66923 216.23481 C 120.90174 214.38752 121.35122 212.19408 122.06553 209.33963 C 124.20165 200.80336 124.33079 198.85937 123.65458 185.45891 C 123.2649 177.7381 123.33386 176.22098 124.23387 172.67313 C 124.38353 172.08318 124.51577 171.39007 124.63333 170.63398 C 124.64515 170.55786 124.65543 170.47533 124.66692 170.39782 C 124.74298 169.88519 124.80431 169.31847 124.86587 168.75296 C 124.91107 168.33624 124.95585 167.91947 124.993 167.4812 C 125.02751 167.07597 125.05424 166.65679 125.08188 166.23786 C 125.11488 165.73291 125.14949 165.23059 125.17232 164.71341 C 125.18538 164.42207 125.1909 164.12867 125.20074 163.83543 C 125.32293 160.09993 125.18848 156.2756 124.76304 153.86704 C 124.72041 153.62494 124.67346 153.40697 124.62506 153.19525 C 124.61525 153.15235 124.6072 153.10093 124.59716 153.05934 z " />
    <path
       id="path7"
       style="opacity:1;fill:#d0cbff;fill-opacity:1;stroke:none;stroke-width:0.344001;stroke-linecap:round"
       d="M 94.623793 153.20352 C 94.623683 153.20421 94.623386 153.2049 94.623276 153.20559 C 94.535794 153.75555 94.46742 154.3189 94.396417 154.88042 C 94.360292 155.16651 94.318169 155.44892 94.286346 155.73721 C 94.229849 156.24802 94.187763 156.76391 94.144753 157.27924 C 94.114678 157.64111 94.082883 158.00212 94.059486 158.36496 C 94.028967 158.83558 94.008489 159.30552 93.989207 159.77573 C 93.97257 160.18595 93.957992 160.59526 93.949932 161.00356 C 93.941074 161.44272 93.937484 161.87949 93.938564 162.31459 C 93.939861 162.75111 93.9474 163.18373 93.958717 163.61425 C 93.969211 164.02025 93.981146 164.42497 94.000575 164.824 C 94.02345 165.28929 94.056497 165.74464 94.091526 166.19807 C 94.118068 166.54332 94.141625 166.89142 94.175242 167.2285 C 94.226488 167.74049 94.292687 168.23208 94.360243 168.72195 C 94.397226 168.99062 94.42685 169.26957 94.468764 169.53069 C 94.586903 170.26559 94.721411 170.97547 94.878558 171.64064 C 95.058143 172.40077 95.201068 173.11957 95.315224 173.84825 C 95.332067 173.95458 95.345671 174.07152 95.361216 174.17847 C 95.441467 174.73812 95.509244 175.30532 95.556553 175.91014 L 95.545701 175.92099 C 95.690412 177.75482 95.702898 179.88929 95.595827 183.06578 C 95.0508 199.27236 95.233509 202.37663 97.161623 209.66209 C 97.866688 212.3257 98.301987 214.42483 98.510894 216.23481 L 104.0351 216.23481 C 103.80096 214.9657 103.8819 213.12605 104.33483 209.6409 C 104.73706 206.54513 105.109 198.74843 105.1601 192.31483 C 105.2329 183.28355 105.45282 179.99728 106.12593 177.8971 C 106.35588 177.17955 106.64888 175.96811 106.95224 174.61616 C 107.05474 174.15896 107.16051 173.63763 107.26592 173.1377 C 107.47192 172.15939 107.67679 171.15065 107.87828 170.09293 C 107.98574 169.5286 108.08927 168.97185 108.19092 168.40931 C 108.38651 167.32495 108.55907 166.29613 108.71596 165.31079 C 108.80207 164.76973 108.90105 164.18907 108.9702 163.70624 C 109.02308 163.33657 109.07131 162.98383 109.11231 162.65875 C 109.1358 162.47259 109.16292 162.27349 109.18208 162.10427 C 109.24066 161.58627 109.28424 161.12681 109.29628 160.79995 L 109.57895 156.03074 L 94.623793 153.20352 z " />
    <path
       id="path5"
       style="opacity:1;fill:#dad5ff;fill-opacity:1;stroke:none;stroke-width:0.344001;stroke-linecap:round"
       d="M 127.96749 100.9695 C 123.31336 101.78483 114.30663 103.24271 108.94695 103.26548 L 108.94798 103.26393 C 103.93883 103.28521 95.602387 101.86138 91.132017 101.02479 C 89.701694 102.28474 88.067964 105.3872 88.015928 107.06835 C 88.015926 107.06836 88.015929 107.06937 88.015928 107.06938 C 88.015105 107.09625 88.005592 107.13061 88.005592 107.15672 L 88.005592 107.15723 L 88.005592 107.15775 C 88.005592 107.56258 87.877504 108.55196 87.671246 109.8196 C 87.671214 109.8198 87.671277 109.81993 87.671246 109.82012 C 87.671183 109.82051 87.671309 109.8208 87.671246 109.82115 C 87.464866 111.08934 87.179808 112.63596 86.866644 114.15526 C 86.866609 114.15542 86.866678 114.1556 86.866644 114.15577 L 86.866644 114.15629 C 86.860795 114.1847 86.85745 114.20808 86.851658 114.23639 C 86.851238 114.23852 86.85107 114.2404 86.850624 114.24259 C 86.696473 114.99621 86.573661 115.69343 86.459434 116.37734 C 86.352623 117.04167 86.263419 117.67773 86.188649 118.2935 L 95.438214 120.77139 L 96.150832 122.91596 L 96.150832 122.91648 L 96.150832 122.91699 C 96.151944 122.92034 96.152824 122.92501 96.153932 122.92836 C 96.286401 123.32952 96.390388 123.77392 96.467091 124.30037 C 96.467324 124.30197 96.467893 124.30291 96.468125 124.30451 C 96.468177 124.30487 96.468073 124.30518 96.468125 124.30554 C 96.468241 124.30634 96.468525 124.30732 96.468642 124.30812 C 96.545812 124.84055 96.59525 125.45653 96.617987 126.19535 C 96.617999 126.19576 96.617974 126.19602 96.617987 126.19638 L 96.617987 126.1969 C 96.640718 126.93718 96.636585 127.80084 96.607135 128.82723 C 96.607124 128.8276 96.607145 128.82789 96.607135 128.82826 L 96.607135 128.82878 C 96.577637 129.8556 96.522585 131.04521 96.44332 132.43734 C 96.443298 132.43774 96.443343 132.43798 96.44332 132.43838 L 96.44332 132.43889 C 96.328051 134.46661 96.231999 136.63101 96.170469 138.48452 C 96.170458 138.48484 96.170479 138.48524 96.170469 138.48555 L 96.170469 138.48607 C 96.170454 138.48652 96.170484 138.48667 96.170469 138.4871 C 96.170408 138.48894 96.170529 138.48941 96.170469 138.49124 C 96.109132 140.34124 96.081899 141.88273 96.104323 142.66618 C 96.10433 142.66642 96.104316 142.66697 96.104323 142.66721 L 96.104323 142.66773 C 96.11524 143.05537 96.093892 143.57252 96.047479 144.17358 C 96.013389 144.61519 95.951829 145.13645 95.891933 145.65307 C 95.868254 145.85731 95.857155 146.0284 95.829921 146.24064 C 95.82985 146.24119 95.829992 146.24163 95.829921 146.24219 C 95.735053 146.98134 95.619471 147.76248 95.488857 148.54127 C 95.488799 148.54161 95.488914 148.54196 95.488857 148.5423 C 95.3582 149.32126 95.212327 150.09799 95.057358 150.82744 C 95.057291 150.82775 95.057426 150.82815 95.057358 150.82847 C 95.006733 151.06655 94.970756 151.31982 94.923516 151.56176 C 94.813658 152.1244 94.703943 152.68702 94.612424 153.26708 C 94.48424 154.09231 94.374091 154.93295 94.281178 155.78062 C 95.988328 156.18338 105.69154 158.42996 110.16445 158.40062 C 114.1837 158.37432 122.72669 155.19316 124.86536 154.37502 C 124.86195 154.3517 124.85744 154.33303 124.85399 154.30991 C 124.75535 153.64879 124.63992 153.06773 124.50414 152.60459 C 124.50364 152.60288 124.50309 152.6006 124.50259 152.5989 C 124.50252 152.59865 124.50266 152.59812 124.50259 152.59787 C 124.41525 152.30081 124.32649 151.91028 124.23749 151.43205 C 124.23744 151.43177 124.23754 151.4313 124.23749 151.43102 C 124.14846 150.95252 124.05894 150.38606 123.96929 149.73758 C 123.96925 149.73728 123.96933 149.73685 123.96929 149.73655 C 123.7899 148.43904 123.61011 146.81328 123.43444 144.90325 C 123.43436 144.90245 123.43451 144.90146 123.43444 144.90067 C 123.25872 142.98989 123.087 140.79482 122.92336 138.36153 C 122.7598 135.92943 122.60401 133.25951 122.46085 130.39561 C 122.46079 130.39461 122.46092 130.39247 122.46085 130.39147 L 122.46085 130.39096 C 122.46083 130.39058 122.46087 130.3903 122.46085 130.38992 C 122.41382 129.44904 122.38657 128.59547 122.37869 127.82729 C 122.37868 127.82671 122.37869 127.82632 122.37869 127.82574 C 122.37799 127.75723 122.38218 127.70996 122.38179 127.6428 C 122.37789 126.95598 122.38548 126.3198 122.41434 125.77418 C 122.44592 125.17733 122.49691 124.66392 122.56782 124.23319 C 122.56792 124.23261 122.56824 124.23223 122.56834 124.23164 C 122.56875 124.22917 122.56897 124.22739 122.56937 124.22493 C 122.63974 123.80033 122.72966 123.4561 122.83861 123.19088 C 122.83954 123.18861 122.84026 123.18436 122.84119 123.18209 C 122.84129 123.18185 122.84109 123.18131 122.84119 123.18106 C 122.84297 123.17676 122.84458 123.17553 122.84636 123.17124 C 123.04732 122.6878 123.24649 122.31956 123.43289 122.06537 C 123.62891 121.79816 123.81034 121.65743 123.96464 121.64627 C 124.03492 121.64126 124.09974 121.66234 124.15739 121.71087 C 124.34326 121.86734 124.45763 122.30029 124.45763 123.0188 C 124.45763 123.34527 124.5152 123.83952 124.58062 124.33603 L 124.5801 124.32208 L 133.03127 119.86809 C 133.03106 119.86509 133.03041 119.8623 133.03023 119.8593 C 132.96412 118.91032 132.87203 117.90913 132.76823 116.93338 C 132.76794 116.93063 132.76802 116.92786 132.76772 116.92511 C 132.74862 116.74938 132.73201 116.57206 132.71191 116.39853 C 132.68031 116.12077 132.64669 115.85109 132.61269 115.58204 C 132.52809 114.92235 132.44002 114.2734 132.34552 113.70877 C 132.34498 113.70577 132.34445 113.70174 132.34345 113.69844 L 132.34345 113.69792 C 132.07776 112.11359 131.83078 110.73732 131.58588 109.50593 C 131.5857 109.50502 131.58554 109.50219 131.58536 109.50128 C 130.65639 104.80813 129.75013 102.41917 127.96749 100.9695 z " />
    <path
       id="path3"
       style="fill:#d0cbff;fill-opacity:1;stroke:none;stroke-width:0.532793;stroke-linecap:round"
       d="M 130.98333 106.78516 C 129.54433 106.98464 126.29721 107.64487 125.2736 109.64855 C 123.90683 112.32369 123.19892 117.95915 123.78067 121.72585 C 123.87057 121.67073 123.9529 121.65297 124.02872 121.66746 C 124.04959 121.67097 124.06953 121.67891 124.08918 121.68761 C 124.12955 121.70669 124.16723 121.73342 124.20183 121.77495 C 124.23461 121.81269 124.26464 121.85995 124.29175 121.91757 C 124.30609 121.94896 124.32049 121.97921 124.33309 122.01627 C 124.36659 122.11219 124.39338 122.22777 124.41371 122.36354 C 124.41862 122.39699 124.42203 122.43418 124.42611 122.46999 C 124.44477 122.63098 124.45763 122.80826 124.45763 123.0188 C 124.45763 123.3322 124.51471 123.8101 124.57545 124.28332 C 124.57716 124.29627 124.57838 124.30809 124.5801 124.32104 C 124.61081 124.37285 124.64361 124.42227 124.67622 124.47194 L 124.59716 124.51741 C 124.68965 125.16422 124.8161 125.84698 124.96303 126.41911 C 125.24073 127.5011 125.74257 130.07222 126.0782 132.13245 C 126.41367 134.19268 127.77877 138.59219 129.11213 141.90912 C 130.1476 144.48389 130.73225 146.06656 131.00503 147.1889 L 136.24089 147.27933 C 135.95163 145.60402 135.58099 142.46001 135.32208 139.31444 C 134.99961 135.39874 134.38214 131.04714 133.94956 129.64423 C 133.51713 128.24147 133.16353 125.18123 133.16408 122.84361 C 133.16418 122.4419 133.14043 121.93421 133.12015 121.4437 C 133.10664 121.11577 133.09461 120.79384 133.07313 120.43859 C 133.04869 120.03756 133.0151 119.61648 132.98166 119.19371 C 132.95468 118.85144 132.93112 118.51566 132.89898 118.16741 C 132.85073 117.64698 132.79305 117.1328 132.73516 116.6197 C 132.70613 116.36197 132.68149 116.09739 132.65041 115.84611 C 132.55543 115.07926 132.45243 114.34387 132.34397 113.69689 C 132.1039 112.26533 131.87981 110.99918 131.65823 109.85371 C 131.65721 109.84851 131.65614 109.84237 131.65512 109.83717 C 131.63453 109.73141 131.61418 109.64144 131.59363 109.53797 C 131.39206 108.51692 131.19162 107.60149 130.98385 106.78516 L 130.98333 106.78516 z " />
    <path
       id="path4"
       style="fill:#d0cbff;fill-opacity:1;stroke:none;stroke-width:0.532793;stroke-linecap:round"
       d="M 88.050034 106.77793 C 88.034544 106.90494 88.006626 107.04298 88.006626 107.1562 C 88.006626 107.96623 87.493653 111.11551 86.867161 114.15474 C 86.864632 114.16702 86.862444 114.17814 86.859926 114.1904 C 86.66894 115.12045 86.509436 115.99265 86.378818 116.81866 C 86.3749 116.84344 86.370798 116.86838 86.366933 116.89307 C 86.237771 117.71835 86.138205 118.49794 86.067726 119.24125 C 86.066029 119.25916 86.064222 119.27713 86.062559 119.29499 C 85.994139 120.02937 85.954958 120.72795 85.942152 121.40391 C 85.941529 121.43681 85.94058 121.46982 85.940085 121.50261 C 85.929921 122.17675 85.94665 122.82827 85.990212 123.46632 C 85.990735 123.47398 85.990714 123.48191 85.991245 123.48957 L 85.990728 123.48957 C 86.178443 126.20696 86.024805 127.74272 85.454844 128.84997 C 84.993763 129.74564 84.342926 133.88739 83.91592 138.64317 C 83.701515 141.03091 83.431044 143.46081 83.171262 145.45567 L 88.695473 145.58951 L 88.698057 145.58279 L 88.727512 145.52027 C 89.074447 144.46828 89.592659 143.1278 90.385809 141.11382 C 91.753873 137.63999 93.035708 133.35529 93.23318 131.59243 C 93.430963 129.82958 94.007882 126.67353 94.515273 124.57891 L 95.415993 120.86079 C 95.78184 117.14058 95.083477 112.12653 93.817641 109.64855 C 92.778081 107.6139 89.453667 106.96596 88.051068 106.77793 L 88.050034 106.77793 z " />
    <path
       style="fill:none;fill-opacity:1;stroke:#3b2d91;stroke-width:0.411262;stroke-dasharray:none;stroke-opacity:1"
       d="m 97.252659,228.85743 c -2.293015,-0.30713 -2.415681,-0.97931 -0.680238,-3.73062 2.61904,-4.15205 2.740467,-7.33749 0.589168,-15.46472 -1.928116,-7.28546 -2.11103,-10.38959 -1.566003,-26.59619 0.195305,-5.7941 0.04337,-8.20654 -0.7171,-11.42543 -1.332287,-5.63922 -1.260577,-14.04446 0.178888,-20.81323 0.620144,-2.91905 1.091447,-6.59144 1.047151,-8.161 -0.04492,-1.56941 0.108417,-6.17248 0.339035,-10.22881 0.317197,-5.57093 0.245641,-7.90034 -0.29257,-9.52132 l -0.712919,-2.14573 -0.922781,3.80837 c -0.507391,2.09462 -1.084478,5.25094 -1.282261,7.0138 -0.197473,1.76286 -1.47896,6.04733 -2.847025,9.52116 -2.452697,6.22793 -2.479027,6.36221 -1.890324,9.64305 0.740332,4.12619 0.7679,7.28205 0.0635,7.28205 -0.293499,0 -0.681167,-0.67327 -0.861449,-1.49631 -0.662736,-3.0239 -0.979003,-3.06339 -1.508697,-0.1891 -0.388906,2.11211 -0.357775,3.62669 0.111515,5.37793 0.735685,2.75069 0.445593,3.53563 -0.731659,1.97969 -2.900459,-3.83346 -4.169864,-9.87785 -3.019097,-14.37808 0.3443,-1.34654 0.959023,-6.15683 1.366051,-10.68974 0.427007,-4.75578 1.077663,-8.89745 1.538744,-9.79313 0.569962,-1.10725 0.723604,-2.64289 0.535889,-5.36028 -0.18307,-2.64228 0.08673,-5.50045 0.876162,-9.33469 0.626494,-3.03923 1.138996,-6.18858 1.138996,-6.99861 0,-1.80421 1.981085,-5.44857 3.503256,-6.44492 0.616737,-0.40346 2.579855,-1.157423 4.362537,-1.67519 1.782682,-0.517768 4.410392,-1.534098 5.839482,-2.258322 3.21843,-1.630898 3.79738,-3.247083 2.19203,-6.118889 -1.52805,-2.733341 -2.94661,-8.356921 -2.27706,-9.026471 0.28901,-0.289163 0.52629,-1.272349 0.52753,-2.185064 0,-4.11643 3.76562,-7.127164 8.35134,-6.686683 2.25724,0.216989 3.03676,0.594744 4.48242,2.172054 2.53927,2.770978 3.30733,6.863866 2.08408,11.105441 -0.50383,1.746285 -1.42243,4.061912 -2.04134,5.145925 -1.07471,1.881806 -1.08323,2.034829 -0.19328,3.393446 1.106,1.688049 4.10698,3.312133 7.77998,4.210134 6.81446,1.666209 7.74622,3.094369 9.72747,14.908699 0.45148,2.69308 0.82071,6.8092 0.82009,9.14682 -5.5e-4,2.33762 0.35282,5.39807 0.78525,6.80083 0.43258,1.40291 1.05009,5.75429 1.37256,9.67 0.3223,3.91571 0.8252,7.95361 1.11762,8.97335 1.07503,3.74828 0.65499,8.6721 -1.04669,12.26906 -1.43095,3.02483 -2.52549,4.43998 -3.03753,3.92779 -0.10532,-0.10532 0.16449,-1.53735 0.59862,-3.18281 0.64601,-2.44604 0.66909,-3.43279 0.127,-5.4103 l -0.6632,-2.41894 -0.48664,1.60271 c -0.99201,3.26691 -1.02794,3.31879 -1.49321,2.14681 -0.47656,-1.20111 -0.17269,-5.07112 0.6011,-7.63363 0.41539,-1.37736 0.0991,-2.64212 -1.92673,-7.67947 -1.33336,-3.31693 -2.6988,-7.71633 -3.03427,-9.77656 -0.33563,-2.06023 -0.83744,-4.63126 -1.11514,-5.71325 -0.27786,-1.082 -0.50507,-2.61223 -0.50507,-3.40042 0,-1.90024 -0.79563,-1.82032 -1.61665,0.16247 -0.44358,1.07054 -0.56841,3.44146 -0.38008,7.20879 0.57291,11.46337 1.3422,19.82958 2.04149,22.20809 1.1201,3.80914 0.96754,15.20267 -0.26857,20.07539 -0.90001,3.54785 -0.96893,5.06461 -0.57925,12.78543 0.67621,13.40047 0.54689,15.34454 -1.58923,23.88081 -2.23215,8.91991 -2.14496,11.8196 0.46835,15.59096 1.57995,2.27969 1.54091,3.80666 -0.0991,3.87992 -0.53294,0.0248 -2.23416,0.127 -3.78034,0.22892 -4.18752,0.2763 -4.70528,-0.52366 -4.28417,-6.61746 0.41013,-5.93132 0.41989,-9.66876 0.0681,-25.21062 -0.2918,-12.86674 -0.47595,-14.62496 -2.68037,-25.57118 -0.75318,-3.74038 -1.59915,-8.14721 -1.87979,-9.79313 -0.43057,-2.52426 -0.52148,-2.68797 -0.58205,-1.04731 -0.10531,2.85833 -2.16167,13.95045 -3.1701,17.09733 -0.67311,2.10018 -0.89335,5.38645 -0.96615,14.41773 -0.0511,6.43361 -0.42313,14.23032 -0.82536,17.32609 -0.54642,4.20455 -0.57988,6.06282 -0.13165,7.34492 0.7298,2.09136 1.02717,8.87299 0.46294,10.55732 -0.22536,0.67327 -0.69944,1.26491 -1.05319,1.31463 -1.26739,0.17889 -5.02125,0.17889 -6.356325,-5.6e-4 z"
       id="path1"
       sodipodi:nodetypes="ssssssssscsssssssssssssssssssscssssssssssssssscsssssssssssssssssssssssssssss" />
  </g>
</svg>
