<?xml version="1.0" encoding="UTF-8" standalone="no"?>
<!-- Created with Inkscape (http://www.inkscape.org/) -->

<svg
   width="338.0466mm"
   height="76.946053mm"
   viewBox="0 0 338.0466 76.946053"
   version="1.1"
   id="svg1"
   inkscape:version="1.3.2 (091e20e, 2023-11-25, custom)"
   sodipodi:docname="logoText.svg"
   xmlns:inkscape="http://www.inkscape.org/namespaces/inkscape"
   xmlns:sodipodi="http://sodipodi.sourceforge.net/DTD/sodipodi-0.dtd"
   xmlns="http://www.w3.org/2000/svg"
   xmlns:svg="http://www.w3.org/2000/svg">
  <sodipodi:namedview
     id="namedview1"
     pagecolor="#ffffff"
     bordercolor="#eeeeee"
     borderopacity="1"
     inkscape:showpageshadow="0"
     inkscape:pageopacity="0"
     inkscape:pagecheckerboard="0"
     inkscape:deskcolor="#ffffff"
     inkscape:document-units="mm"
     inkscape:zoom="0.17304819"
     inkscape:cx="450.7415"
     inkscape:cy="667.44414"
     inkscape:window-width="1920"
     inkscape:window-height="991"
     inkscape:window-x="-9"
     inkscape:window-y="-9"
     inkscape:window-maximized="1"
     inkscape:current-layer="layer1"
     inkscape:clip-to-page="false" />
  <defs
     id="defs1" />
  <g
     inkscape:label="Layer 1"
     inkscape:groupmode="layer"
     id="layer1"
     transform="translate(193.93919,-535.55891)">
    <path
       id="path3"
       style="fill:#5d46e5;fill-opacity:1;stroke:none;stroke-width:0;stroke-linecap:round"
       d="m -4.4970088,535.57385 c -0.1812176,0.023 -0.3619477,0.0735 -0.5322672,0.15865 -0.3380491,0.16903 -0.5958247,0.46226 -0.7539591,0.77514 -0.8963749,1.6671 -1.6651158,3.45848 -2.3027019,5.37125 l -0.00413,0.0119 -0.00362,0.0114 c -0.01638,0.0546 -0.038291,0.10364 -0.054777,0.15813 l 0.9146729,-0.008 c -2.489e-4,7.4e-4 -7.847e-4,10e-4 -0.00103,0.002 l -0.9136394,0.008 c -0.5431272,1.79496 -1.1382985,3.53644 -1.7967895,5.2126 l -0.00207,0.002 -8.720915,22.4162 h -0.0021 c -2.124668,5.49915 -4.279619,10.99905 -6.466789,16.49822 -2.169306,5.39226 -4.370352,10.81552 -6.601147,16.26929 l -0.03359,-0.008 c -0.820212,1.69902 -1.986098,3.18962 -3.523299,4.49223 -1.496223,1.20674 -3.14578,1.84793 -5.038969,1.96267 l -0.230477,0.0134 -1.668115,1.11363 0.910539,1.81849 0.708484,0.47439 0.285254,-0.0176 c 5.551853,-0.31191 11.042585,-0.49832 16.468762,-0.56069 l 0.217041,-0.002 1.474328,-0.8201 v -2.0159 l -0.527099,-0.22066 c -0.747756,-0.31157 -1.467801,-0.55853 -2.167826,-0.75396 -0.106408,-0.0426 -0.159076,-0.0783 -0.242363,-0.26148 -0.08329,-0.18323 -0.156063,-0.52089 -0.156063,-1.00407 0,0.12541 0.02645,-0.15903 0.128675,-0.50953 0.102227,-0.3505 0.262652,-0.84205 0.478523,-1.45883 0.432588,-1.23596 0.992987,-2.72753 1.677934,-4.47104 l 0.0015,-0.004 0.0021,-0.006 c 0.683706,-1.8025 1.430003,-3.69888 2.238623,-5.68958 l 0.0036,-0.0119 c 0.875445,-2.06375 1.688406,-4.03368 2.439644,-5.91179 l 0.0021,-0.006 0.0021,-0.004 c 0.745605,-1.92615 1.396998,-3.60002 1.956987,-5.03122 l 0.0036,-0.01 c 0.0022,-0.006 0.0056,-0.0141 0.0078,-0.0196 0.509322,-1.17182 0.820187,-1.91179 1.082104,-2.54869 H 3.3924322 c 0.2118204,0.55516 0.4604078,1.19624 0.9162231,2.3611 0.562169,1.43666 1.2189101,3.12328 1.9688721,5.06067 l 0.00568,0.0155 0.00568,0.016 c 0.8072268,1.86282 1.6153904,3.85136 2.4241414,5.96656 l 0.00362,0.0119 0.0062,0.01 c 0.8727036,2.11943 1.6493622,4.08074 2.3337082,5.88491 l 0.0021,0.006 0.0021,0.004 c 0.684946,1.74351 1.245346,3.23457 1.677934,4.47053 l 0.0078,0.0258 0.01137,0.0253 c 0.245507,0.58308 0.419251,1.03089 0.515731,1.32033 0.03435,0.10306 0.04666,0.1533 0.06046,0.20671 l 0.01602,0.18552 c 0.04213,0.46341 -0.05987,0.74975 -0.408244,1.09812 l -0.0217,0.0191 -0.01757,0.0217 c -0.302533,0.34573 -0.620847,0.50916 -1.119312,0.55448 l -0.205155,0.0196 -1.5859501,0.99012 0.9105391,1.81849 0.751892,0.56431 0.267684,0.0103 c 3.381381,0.12524 6.763212,0.2185 10.144601,0.28112 3.428115,0.0623 6.823793,0.18615 10.189042,0.3731 l 0.248047,0.0134 1.974556,-1.09554 -0.673861,-0.79892 -1.269173,-1.50017 -0.367419,-0.0212 c -1.954737,-0.11498 -3.667531,-0.78678 -5.228622,-2.05879 -1.591715,-1.29694 -2.748741,-2.80441 -3.505729,-4.55062 v -0.002 C 18.750714,591.43275 14.378413,580.5375 10.320175,569.61156 v -0.002 C 6.920553,560.40445 3.3811207,551.19914 -0.19339547,541.99413 l -0.88573403,0.008 c -2.779e-4,-7.2e-4 -7.556e-4,-10e-4 -0.00103,-0.002 l 0.88676753,-0.008 c -0.70002204,-1.80268 -1.35205953,-3.60579 -2.05878903,-5.40845 l -0.064079,-0.16589 -0.127124,-0.12712 c -0.401879,-0.40188 -0.9440855,-0.6286 -1.5177368,-0.71055 -0.1731673,-0.0248 -0.3546669,-0.0292 -0.5358847,-0.006 z m -187.5771812,0.0765 -1.865,0.82837 0.80047,1.60146 0.0294,0.0449 c 0.19831,0.29749 0.45874,0.5443 0.76378,0.77308 l 0.20102,0.15245 0.25373,0.0176 c 1.60897,0.11096 2.76723,0.71976 3.69332,1.91823 l 0.0139,0.0176 0.0134,0.0176 c 1.01214,1.18083 1.52037,2.46858 1.57614,3.97443 0.18728,4.86941 0.31274,9.70717 0.37517,14.51385 0.0625,4.81028 0.0935,9.65229 0.0935,14.52521 v 14.53709 c 0,4.73134 -0.12583,9.52412 -0.37465,14.38104 -0.11149,1.43204 -0.67462,2.73758 -1.75804,3.99407 -1.06375,1.17167 -2.23029,1.7608 -3.63853,1.86914 l -0.2248,0.0176 -1.61127,1.07228 0.75603,1.88878 0.87695,0.4377 0.23409,-0.016 c 3.5487,-0.24904 7.0983,-0.40438 10.6469,-0.46664 h 0.008 0.006 c 3.6165,-0.12471 7.20234,-0.18759 10.75593,-0.18759 h 0.25942 l 1.59008,-1.0604 -0.57257,-1.90066 -0.3297,-0.16588 c -0.30129,-0.15064 -0.53596,-0.27905 -0.94723,-0.27905 l 0.17932,0.0191 c -1.65108,-0.3538 -2.99499,-0.93519 -4.06642,-1.72238 -0.86848,-0.68038 -1.34805,-1.7916 -1.34927,-3.62096 v -0.006 c 0.0625,-10.12607 0.0935,-20.19027 0.0935,-30.19143 v -0.002 c 0.0607,-9.7128 -0.009,-19.48983 -0.18346,-29.32018 0.85507,0.0355 1.70808,0.0723 2.69906,0.0723 h 0.0217 l 0.0191,-0.002 c 1.29935,-0.0619 2.59918,-0.0935 3.89847,-0.0935 1.33641,0 2.57343,0.0917 3.71088,0.2713 l 0.0253,0.004 0.0238,0.002 c 1.18461,0.11846 2.19754,0.35404 3.0427,0.69143 2.71971,1.12432 4.62937,2.81599 5.84771,5.13664 l 0.006,0.0114 0.006,0.0119 c 1.2978,2.30064 1.851,4.74054 1.6738,7.39852 -0.17675,2.58692 -1.08024,5.05056 -2.75383,7.44141 l -0.004,0.008 -0.004,0.006 c -1.58402,2.34669 -3.89636,4.14296 -7.01973,5.40432 l -0.0114,0.004 -0.0103,0.006 c -1.88155,0.82319 -3.8312,1.17239 -5.89059,1.05471 l -0.1912,-0.0114 -1.71515,0.68523 0.20723,2.07222 0.45113,0.20516 c 0.69844,0.31746 1.36713,0.60379 2.00608,0.85937 l 0.045,0.0196 0.0465,0.0114 c 0.70812,0.19312 1.4467,0.35401 2.21278,0.48266 0.001,2.8e-4 0.003,-2.7e-4 0.004,0 3.17387,0.64717 6.1351,0.58872 8.84752,-0.20516 2.72551,-0.7793 5.12018,-2.02318 7.15253,-3.72638 2.08708,-1.69721 3.75953,-3.76461 4.99815,-6.17586 1.2973,-2.40451 2.08299,-4.95426 2.34353,-7.62485 0.26131,-2.67833 -0.0346,-5.36325 -0.8785,-8.02742 l -0.002,-0.004 c -0.68003,-2.19508 -1.89413,-4.1752 -3.39669,-6.02754 l -0.99374,0.009 c -0.001,-10e-4 -0.002,-0.002 -0.003,-0.004 l 0.99477,-0.008 c -0.38465,-0.47405 -0.68008,-0.9867 -1.11724,-1.43712 l -0.25374,-0.262 h -0.0568 c -1.81399,-1.80184 -3.81164,-3.16224 -6.00945,-3.97857 h -0.002 c -2.47763,-0.91282 -5.0059,-1.30873 -7.56078,-1.17771 l 0.0217,-0.002 c -4.79931,0.12466 -9.56816,0.12464 -14.30456,0 -4.73647,-0.12464 -9.47285,-0.37175 -14.20947,-0.74569 z m 92.087919,0.002 -1.859319,0.8263 0.40049,0.80461 c 0.12504,0.25007 0.24961,0.49974 0.37466,0.74982 l 0.0253,0.047 0.0294,0.0449 c 0.19832,0.29749 0.45668,0.54482 0.76172,0.7736 l 0.20102,0.15038 0.252178,0.0191 c 1.551291,0.11081 2.777686,0.70797 3.833874,1.87534 0.52837,0.58399 0.922087,1.20163 1.195276,1.865 l 0.891935,-0.008 c 3.48e-4,9.8e-4 1.7e-4,0.002 5.17e-4,0.003 l -0.890385,0.007 c 0.277093,0.67372 0.427138,1.39564 0.45527,2.18333 v 0.002 h 0.0021 c 0.374692,9.67958 0.560172,19.3595 0.560172,29.03906 v 0.004 0.002 c 0.06237,9.60479 -0.124015,19.24087 -0.560172,28.90831 -0.111454,1.50463 -0.675177,2.80167 -1.750281,3.98994 l -0.0057,0.008 -0.0078,0.01 c -0.990952,1.15609 -2.174269,1.74855 -3.724837,1.85931 l -0.224787,0.0155 -1.61283,1.07435 0.75551,1.88877 0.8692,0.43564 0.22841,-0.014 c 7.987247,-0.43681 15.912097,-0.65422 23.773742,-0.65422 7.866188,0 15.795573,0.15652 23.787179,0.4687 l 0.374654,0.014 0.265617,-0.26562 c -0.07735,0.0773 -0.151917,0.0641 -0.04496,0.0641 0.24217,0 0.495705,-0.0279 0.760161,-0.1602 0.261715,-0.13085 0.510039,-0.40679 0.611332,-0.70073 0.332876,-0.87233 0.567435,-1.80297 0.699182,-2.79104 0.119755,-0.89816 0.298706,-1.76404 0.536918,-2.59778 0.251381,-0.87983 0.470734,-1.75993 0.660425,-2.64066 l 0.0098,-0.0408 c 0.248766,-0.93543 0.467829,-1.84213 0.655773,-2.71921 l 0.02377,-0.11111 -0.0155,-0.31264 -0.09612,-0.17363 -0.661976,-1.19166 -1.642277,-0.32815 -1.244368,0.71107 -0.09353,0.34365 c -0.513634,1.88332 -1.520774,3.26661 -3.105754,4.28553 -0.799603,0.51403 -1.615787,0.87691 -2.455147,1.10329 -0.800217,0.16998 -1.701388,0.26175 -2.704745,0.262 -4.122287,-0.12468 -8.215317,-0.18745 -12.275736,-0.18759 h -0.01344 c -3.777997,-0.0579 -7.588648,-0.0159 -11.419975,0.0879 0.117943,-9.83478 0.181384,-19.61716 0.181384,-29.33412 0,-10.00503 -0.031,-20.07123 -0.09353,-30.20126 4.82e-4,-0.93472 0.212839,-1.71823 0.535368,-2.43913 l -5.17e-4,-5.2e-4 -0.985469,0.008 c 2.66e-4,-7.3e-4 7.66e-4,-10e-4 10e-4,-0.002 l 0.986503,-0.008 c 0.220728,-0.49266 0.463983,-0.97032 0.838192,-1.38855 0.901054,-1.00707 2.048123,-1.49603 3.673677,-1.49603 h 0.222726 l 1.757515,-0.97669 -0.927592,-1.85363 -0.759643,-0.57051 -0.277503,-0.006 c -3.626089,-0.0625 -7.221306,-0.12508 -10.784871,-0.18759 l 0.0155,0.002 c -3.553804,-0.1247 -7.139222,-0.31334 -10.755933,-0.56276 z m -15.900319,0.46095 -0.20154,0.0295 c -3.33429,0.49396 -6.70059,0.74 -10.09758,0.74 -3.40216,0 -6.77178,-0.21567 -10.11101,-0.64854 l -0.23822,-0.031 -1.98076,0.87901 1.60765,2.49959 0.40618,0.045 c 1.47873,0.16431 2.60097,0.79955 3.54087,2.0159 l 0.008,0.01 0.008,0.0103 c 0.39093,0.4778 0.63857,0.97214 0.88263,1.46865 l 0.99581,-0.009 c 3.5e-4,8.4e-4 6.7e-4,0.002 0.001,0.003 l -0.99477,0.008 c 0.39531,0.80499 0.66914,1.63143 0.70331,2.51974 0.12453,4.98704 0.1559,9.8808 0.0935,14.67972 v 0.006 14.54071 13.98054 0.006 c 0.0624,4.61486 0.0312,9.25946 -0.0935,13.93714 v 0.0119 0.0119 c 0,1.41636 -0.494,2.69049 -1.57251,3.93929 l -0.01,0.0114 -0.008,0.0103 c -0.93973,1.16085 -2.08797,1.81302 -3.58634,2.03501 l -0.22273,0.0331 -1.62264,1.26194 1.11725,1.86345 0.77307,0.25735 0.19948,-0.0269 c 6.7381,-0.92725 13.47098,-0.92725 20.2091,0 l 0.28318,0.0388 1.9234,-1.06815 -0.53898,-0.77928 -1.05472,-1.52342 -0.36484,-0.0548 c -1.42933,-0.2199 -2.63215,-0.88224 -3.7052,-2.06447 -1.00155,-1.17227 -1.47484,-2.44032 -1.47484,-3.93361 v -57.20685 c 0,-0.94842 0.28301,-1.78621 0.70538,-2.58795 v -10e-4 l -1.02319,0.009 c 3.6e-4,-8.4e-4 6.7e-4,-0.002 0.001,-0.003 l 1.02423,-0.008 c 0.23952,-0.45414 0.46671,-0.90831 0.85163,-1.33376 l 0.008,-0.01 0.008,-0.008 c 1.01433,-1.18338 2.19378,-1.87696 3.63647,-2.15439 l 0.2036,-0.0388 1.60714,-1.25005 -1.11931,-1.86345 z m 240.54656,0.30076 c -4.07443,0.0653 -7.74358,1.11057 -10.94301,3.13469 -0.63261,0.3956 -1.091,1.00203 -1.66036,1.47485 -2.27394,1.88837 -4.18519,4.2142 -5.42964,7.27345 v 0.002 c -0.97875,2.41427 -1.44079,4.88344 -1.37511,7.3794 v 0.004 0.006 c 0.0642,1.66945 0.25765,3.33867 0.57826,5.00589 0.3318,1.72537 0.96444,3.35685 1.89084,4.87877 l 0.006,0.008 0.004,0.008 c 1.48717,2.32779 3.39059,4.4861 5.69732,6.47248 l 0.01,0.008 0.01,0.008 c 2.32207,1.88276 4.73701,3.76488 7.24607,5.64668 l 0.006,0.004 0.006,0.006 c 2.48116,1.79884 4.86731,3.68962 7.16184,5.67407 2.24929,1.94533 4.06146,4.09183 5.44928,6.44509 l 0.004,0.004 0.002,0.006 c 1.17279,1.9351 1.643,3.82637 1.47226,5.76141 -0.16973,1.86229 -0.97582,3.61227 -2.50372,5.31647 l -0.002,0.004 -0.002,0.002 c -1.27562,1.44957 -2.77718,2.41064 -4.56044,2.92954 -2.23683,0.6036 -4.39946,0.8722 -6.49418,0.81235 -2.11736,-0.0605 -4.20173,-0.36449 -6.25956,-0.90796 -2.01297,-0.6108 -4.03017,-1.40309 -6.0508,-2.3828 -1.97478,-0.98773 -3.92008,-2.06898 -5.83427,-3.24217 l -0.16588,-0.10181 -1.61489,-0.16174 -0.29145,0.38654 c -0.38886,0.51846 -0.65574,0.90531 -0.83199,1.2578 l -0.14263,0.28319 0.0785,0.3085 c 0.30198,1.20795 0.5135,2.44734 0.63458,3.71864 l 0.002,0.0196 0.002,0.0196 c 0.19162,1.34126 0.44744,2.65174 0.76739,3.93155 l 0.0662,0.26561 1.01958,0.87489 0.19947,0.0491 c 3.60043,0.88432 7.20134,1.51517 10.80451,1.89446 h 0.002 c 3.65046,0.37763 7.3025,0.59902 10.95334,0.66197 2.59705,0.064 5.05467,-0.32819 7.34735,-1.17977 2.31101,-0.85838 4.41881,-2.24683 6.30866,-4.1367 3.71365,-3.71364 5.53889,-8.36302 5.41001,-13.75161 v -0.002 c -0.0652,-3.31077 -0.85102,-6.30808 -2.36316,-8.93951 -1.41441,-2.56923 -3.21402,-4.91535 -5.39037,-7.02954 l -0.004,-0.004 c -2.09586,-2.09542 -4.38202,-4.03111 -6.85539,-5.80688 -2.41926,-1.7992 -4.68225,-3.56768 -6.78925,-5.30252 -2.01529,-1.77222 -3.71796,-3.59815 -5.11132,-5.4746 l -0.002,-0.004 c -1.34546,-1.87334 -2.06336,-3.9131 -2.18126,-6.19136 v -0.004 c -3e-5,-6.6e-4 4e-5,-10e-4 0,-0.002 -0.0543,-1.2183 0.21516,-2.39761 0.83974,-3.58996 l 0.008,-0.0134 0.006,-0.0139 c 0.709,-1.47709 1.6187,-2.76539 2.7342,-3.88245 1.15755,-1.09716 2.50604,-1.90212 4.0783,-2.42621 1.4292,-0.4764 2.95177,-0.77588 4.5744,-0.89607 h 0.0134 l 0.0155,-0.002 c 1.6813,-0.18014 3.32505,-0.14928 4.93975,0.0899 h 0.002 0.002 c 1.66557,0.23794 3.20008,0.70992 4.61523,1.41749 l 0.0176,0.0103 0.0196,0.008 c 1.45695,0.64106 2.69487,1.53585 3.74034,2.69751 l 0.16227,0.17777 1.55443,0.46664 0.33589,-0.22479 c 0.17727,-0.11818 0.32799,-0.24768 0.47491,-0.38086 0.33059,-0.2225 0.58051,-0.53625 0.75551,-0.88625 l 0.0786,-0.15658 0.01,-0.17363 c 0.0625,-1.00054 0.0925,-2.00125 0.0935,-3.00189 l 0.002,-0.0527 c 0.0615,-1.00054 0.0935,-2.00124 0.0935,-3.00188 v -0.85783 h -0.4687 l -0.58188,-0.66611 -0.26769,-0.062 c -2.97348,-0.69592 -5.98076,-1.2014 -9.01753,-1.51774 -3.03488,-0.31613 -6.06995,-0.44392 -9.10539,-0.38085 z m -95.459294,0.34055 c -0.18272,-0.0292 -0.375585,-0.0228 -0.54467,0.0336 v -0.001 c -0.338168,0.11273 -0.539442,0.32582 -0.695048,0.5333 l 0.07803,-0.092 -0.693498,0.69556 -0.02325,0.31833 c -0.08523,1.15061 -0.170571,2.33595 -0.255799,3.51555 l 0.86093,-0.008 c -5e-5,6.9e-4 5e-5,10e-4 0,0.002 l -0.86093,0.007 c -0.03987,0.55178 -0.0795,1.08624 -0.119372,1.64434 l -0.0016,0.014 v 0.0155 c -0.06174,1.66689 -0.186304,3.33247 -0.371553,4.9997 l -0.02687,0.25218 0.113172,0.22634 c 0.176241,0.35249 0.425517,0.67177 0.759643,0.89452 l 0.125057,0.0822 0.142627,0.0351 c 0.184774,0.0462 0.377295,0.1176 0.576192,0.21704 l 0.42168,0.21084 1.590084,-0.95291 0.10697,-0.26975 c 0.262912,-0.65728 0.492142,-1.34494 0.687813,-2.06241 l 0.0021,-0.008 0.0021,-0.01 c 0.173949,-0.69579 0.403349,-1.32295 0.68523,-1.88671 l -0.02894,-0.0217 c 0.121334,-0.30058 0.303194,-0.54026 0.654224,-0.75965 l 0.04289,-0.0274 0.03721,-0.031 c 0.247184,-0.19774 0.408538,-0.18552 0.214457,-0.18552 h 0.13901 l 0.132808,-0.045 c -0.02971,0.01 0.08435,-0.0179 0.310576,0.0274 l 0.04289,0.01 0.04289,0.004 c 3.286964,0.31605 6.452466,0.41001 9.496061,0.28319 h 0.0078 0.0098 c 2.770302,-0.16961 5.641278,-0.23842 8.568469,-0.25373 0.119637,9.77232 0.21267,19.54579 0.273368,29.31811 v 0.002 0.004 c 0.124884,9.9907 0.0311,20.01092 -0.281119,30.06431 v 0.0134 0.014 c 0,0.75262 -0.158755,1.46569 -0.484725,2.17196 l -0.0078,0.0155 -0.0057,0.014 c -0.267003,0.64081 -0.666233,1.23261 -1.220598,1.78697 -0.486463,0.48646 -1.056929,0.89128 -1.71514,1.22473 -0.616459,0.25326 -1.276729,0.36197 -2.0252,0.30851 l -0.185518,-0.014 -1.425753,0.5333 -0.203088,2.03141 1.538924,0.85524 0.230477,-0.004 c 3.621238,-0.0625 7.242183,-0.0935 10.863419,-0.0935 h 11.164177 l 0.767395,-0.57412 0.925525,-1.8557 -1.769401,-0.98237 -0.238229,0.008 c -1.609916,0.0555 -2.773132,-0.42344 -3.74034,-1.4981 -0.99736,-1.10819 -1.505957,-2.38474 -1.562178,-3.95894 -0.124752,-10.05322 -0.156493,-20.07566 -0.09405,-30.06638 0.0608,-9.72871 0.121096,-19.48943 0.181901,-29.27728 1.42762,-0.0153 3.037109,-0.0544 5.192964,-0.16226 2.492333,-0.12461 5.048182,-0.21877 7.666199,-0.28112 2.669339,-0.0621 5.15015,-0.0301 7.437789,0.0935 h 0.01137 0.01188 c 2.334188,0.0614 4.034791,0.29109 5.001762,0.6134 l 0.0041,0.002 0.0057,0.002 c 1.595571,0.51287 2.945593,1.43603 4.103625,2.82567 l 0.170016,0.20361 1.247986,0.35708 1.740462,-0.9493 0.04444,-0.45113 0.129192,-1.3007 -0.236162,-0.2775 c -1.042323,-1.22626 -2.051894,-2.45357 -3.033406,-3.67936 -2.55e-4,-3.2e-4 -0.0018,3.2e-4 -0.0021,0 -0.01,-0.0125 -0.02103,-0.0247 -0.03101,-0.0372 l -0.01189,-0.0155 c -0.996376,-1.30774 -1.992071,-2.61398 -2.988448,-3.92173 l -0.183451,-0.24029 -0.290939,-0.0724 c -0.312918,-0.0783 -0.557833,-0.0793 -0.997871,-0.0956 -0.44004,-0.0163 -1.017323,-0.0258 -1.74253,-0.0258 -1.450412,0 -3.239872,0.0334 -5.371248,0.0961 l 0.02584,-0.002 c -2.134108,0 -4.454446,0.0329 -6.961332,0.0956 l 0.0217,-0.002 c -2.445629,0 -4.799151,0.0328 -7.058484,0.0956 -2.240763,0.0622 -4.229968,0.12324 -5.976896,0.18552 H 56.68737 42.902165 c -4.28033,0 -8.81284,-0.15491 -13.594519,-0.46457 -0.03899,-0.01 -0.06665,-0.0334 -0.10697,-0.0398 z m -35.0619426,20.08352 6.63060306,17.29094 c -2.22456146,0.008 -4.45962246,0.0274 -6.72827146,0.0801 -2.2074853,0 -4.413812,-0.0337 -6.621301,-0.078 1.258922,-3.0071 2.47287,-6.02991 3.5842771,-9.08627 0.9947203,-2.73549 2.0605642,-5.47106 3.1346923,-8.20674 z"
       sodipodi:nodetypes="ssccccccccccccccccccccccccccccscsscccccccccscccsccccccccccccsccccccccccccccccccsccccccccccssscccccccccccssscccccccccccscccccccsssscsccscccccccccccccccccccccccccccscccccccccccccscccccccccccscccccccscsccccccccccscccsscssccscccccccsccsccsccccccsscccccccccccsccccccccccccccccccccsscccccccccccccccsscccccccccccccccscccccscccccccccsccccccccscccccccccccccccscccssssccccccccccccccscccccccccccccccccccsccccsccscccccccccccccccscccsccccccccccccccccsccccscsccscccscccccccsccccsscscsccccccccccccccsccscccssccccsccscsccccsc" />
  </g>
</svg>
